<?xml version="1.0" encoding="UTF-8"?>
<svg width="980px" height="605px" viewBox="0 0 980 605" version="1.1" xmlns="http://www.w3.org/2000/svg" xmlns:xlink="http://www.w3.org/1999/xlink">
    <!-- Generator: Sketch 55.2 (78181) - https://sketchapp.com -->
    <title>banner</title>
    <desc>Created with Sketch.</desc>
    <g id="Page-1" stroke="none" stroke-width="1" fill="none" fill-rule="evenodd">
        <g id="icon-copy-2" transform="translate(396.000000, 168.000000)" fill="#343334" fill-rule="nonzero">
            <path d="M188,248 L188,20 C188,8.954305 179.045695,-2.02906125e-15 168,0 L20,0 C8.954305,2.02906125e-15 -1.3527075e-15,8.954305 0,20 L0,248 C1.3527075e-15,259.045695 8.954305,268 20,268 L168,268 C179.045695,268 188,259.045695 188,248 Z M133.912698,26.6953125 C148.684127,26.6953125 160.769841,38.7553125 160.769841,53.4953125 C160.769841,68.2353125 148.684127,80.2953125 133.912698,80.2953125 C119.14127,80.2953125 107.055556,68.2353125 107.055556,53.4953125 C107.055556,38.7553125 119.14127,26.6953125 133.912698,26.6953125 Z M53.4904762,26.6953125 C68.2619048,26.6953125 80.347619,38.7553125 80.347619,53.4953125 C80.347619,68.2353125 68.2619048,80.2953125 53.4904762,80.2953125 C38.7190476,80.2953125 26.6333333,68.2353125 26.6333333,53.4953125 C26.6333333,38.7553125 38.7190476,26.6953125 53.4904762,26.6953125 Z M93.7761905,107.304688 C130.033333,107.304688 160.919048,136.784688 160.919048,174.304688 C160.919048,211.824688 130.033333,241.304688 93.7761905,241.304688 C56.1761905,241.304688 26.6333333,211.824688 26.6333333,174.304688 C26.6333333,136.784688 56.1761905,107.304688 93.7761905,107.304688 Z" id="Shape"></path>
            <ellipse id="Oval" cx="94" cy="174.5" rx="27" ry="26.5"></ellipse>
        </g>
    </g>
</svg>