<?xml version="1.0" encoding="UTF-8"?>
<svg width="360px" height="512px" viewBox="0 0 360 512" version="1.1" xmlns="http://www.w3.org/2000/svg" xmlns:xlink="http://www.w3.org/1999/xlink">
    <!-- Generator: Sketch 54 (76480) - https://sketchapp.com -->
    <title>icon</title>
    <desc>Created with Sketch.</desc>
    <g id="Page-1" stroke="none" stroke-width="1" fill="none" fill-rule="evenodd">
        <g id="icon" fill="#343334" fill-rule="nonzero">
            <path d="M360,492 L360,20 C360,8.954305 351.045695,-2.02906125e-15 340,0 L20,0 C8.954305,2.02906125e-15 -1.3527075e-15,8.954305 0,20 L0,492 C1.3527075e-15,503.045695 8.954305,512 20,512 L340,512 C351.045695,512 360,503.045695 360,492 Z M256.428571,51 C284.714286,51 307.857143,74.04 307.857143,102.2 C307.857143,130.36 284.714286,153.4 256.428571,153.4 C228.142857,153.4 205,130.36 205,102.2 C205,74.04 228.142857,51 256.428571,51 Z M102.428571,51 C130.714286,51 153.857143,74.04 153.857143,102.2 C153.857143,130.36 130.714286,153.4 102.428571,153.4 C74.1428571,153.4 51,130.36 51,102.2 C51,74.04 74.1428571,51 102.428571,51 Z M179.571429,205 C249,205 308.142857,261.32 308.142857,333 C308.142857,404.68 249,461 179.571429,461 C107.571429,461 51,404.68 51,333 C51,261.32 107.571429,205 179.571429,205 Z" id="Shape"></path>
            <ellipse id="Oval" cx="179.5" cy="333" rx="51.5" ry="51"></ellipse>
        </g>
    </g>
</svg>